<?xml version="1.0" encoding="utf-8"?>
<!-- Generator: Adobe Illustrator 21.0.0, SVG Export Plug-In . SVG Version: 6.00 Build 0)  -->
<svg version="1.1" id="Layer_1" xmlns="http://www.w3.org/2000/svg" xmlns:xlink="http://www.w3.org/1999/xlink" x="0px" y="0px"
	 viewBox="0 0 512 512" style="enable-background:new 0 0 512 512;" xml:space="preserve">
<g>
	<path d="M236.3,0v98.5h39.4V0H236.3z M88.6,60.9L60.9,88.6l69.5,70.2l28.3-28.3L88.6,60.9z M423.4,60.9l-70.2,69.5l28.3,28.3
		l69.5-70.2L423.4,60.9z M256,118.2c-75.9,0-137.8,61.9-137.8,137.8S180.1,393.8,256,393.8S393.8,331.9,393.8,256
		S331.9,118.2,256,118.2z M256,157.5c54.6,0,98.5,43.8,98.5,98.5s-43.8,98.5-98.5,98.5s-98.5-43.8-98.5-98.5S201.4,157.5,256,157.5z
		 M0,236.3v39.4h98.5v-39.4H0z M413.5,236.3v39.4H512v-39.4H413.5z M130.5,353.2l-69.5,70.2l27.7,27.7l70.2-69.5L130.5,353.2z
		 M381.5,353.2l-28.3,28.3l70.2,69.5l27.7-27.7L381.5,353.2z M236.3,413.5V512h39.4v-98.5H236.3z"/>
</g>
</svg>
