<?xml version="1.0" encoding="utf-8"?>
<!-- Generator: Adobe Illustrator 24.1.1, SVG Export Plug-In . SVG Version: 6.00 Build 0)  -->
<svg version="1.1" id="Layer_1" xmlns="http://www.w3.org/2000/svg" xmlns:xlink="http://www.w3.org/1999/xlink" x="0px" y="0px"
	 viewBox="0 0 512 512" style="enable-background:new 0 0 512 512;" xml:space="preserve">
<style type="text/css">
	.st0{fill:#231F20;}
</style>
<g>
	<path class="st0" d="M256,102.4c14.1,0,25.6-11.5,25.6-25.6V25.6C281.6,11.5,270.1,0,256,0c-14.1,0-25.6,11.5-25.6,25.6v51.2
		C230.4,90.9,241.9,102.4,256,102.4z"/>
	<path class="st0" d="M486.4,230.4h-51.2c-14.1,0-25.6,11.5-25.6,25.6c0,14.1,11.5,25.6,25.6,25.6h51.2c14.1,0,25.6-11.5,25.6-25.6
		C512,241.9,500.5,230.4,486.4,230.4z"/>
	<path class="st0" d="M102.4,256c0-14.1-11.5-25.6-25.6-25.6H25.6C11.5,230.4,0,241.9,0,256c0,14.1,11.5,25.6,25.6,25.6h51.2
		C90.9,281.6,102.4,270.1,102.4,256z"/>
	<path class="st0" d="M108,76.8c-10.4-9.8-26.8-9.4-36.6,1s-9.4,26.8,1,36.6l36.9,35.6c5,4.8,11.7,7.4,18.7,7.2
		c7,0,13.6-2.9,18.4-7.9c9.9-10,9.9-26.1,0-36.1L108,76.8z"/>
	<path class="st0" d="M384,157.2c6.6,0,12.9-2.6,17.7-7.2l36.9-35.6c9.8-10.2,9.4-26.4-0.8-36.2c-9.3-8.9-23.8-9.5-33.8-1.4
		l-36.9,36.3c-9.9,10-9.9,26.1,0,36.1C371.5,153.9,377.6,156.8,384,157.2z"/>
	<path class="st0" d="M256,409.6c-14.1,0-25.6,11.5-25.6,25.6v51.2c0,14.1,11.5,25.6,25.6,25.6c14.1,0,25.6-11.5,25.6-25.6v-51.2
		C281.6,421.1,270.1,409.6,256,409.6z"/>
	<path class="st0" d="M402.7,362c-10.2-9.8-26.4-9.5-36.2,0.6c-9.8,10.2-9.5,26.4,0.6,36.2l36.9,36.4c4.8,4.6,11.1,7.1,17.7,7.2
		c6.9,0.1,13.6-2.7,18.4-7.7c10-10,10.1-26.2,0.1-36.2l-0.1-0.1L402.7,362z"/>
	<path class="st0" d="M109.3,362l-36.9,35.6c-10,10-10.1,26.2-0.1,36.2l0.1,0.1c4.9,5,11.5,7.7,18.4,7.7c6.3,0,12.4-2.2,17.2-6.4
		l36.9-35.6c10.2-9.8,10.5-26,0.6-36.2c-9.8-10.2-26.1-10.5-36.2-0.6V362z"/>
	<circle class="st0" cx="256" cy="256" r="102.4"/>
</g>
</svg>
